<svg xmlns="http://www.w3.org/2000/svg" xmlns:xlink="http://www.w3.org/1999/xlink" width="840" height="581.04"><rect width="840" height="581.04" rx="5" ry="5" class="a"/><svg y="0%" x="0%"><circle cx="20" cy="20" r="6" fill="#ff5f58"/><circle cx="40" cy="20" r="6" fill="#ffbd2e"/><circle cx="60" cy="20" r="6" fill="#18c132"/></svg><svg height="521.04" viewBox="0 0 80 52.104" width="800" x="15" xmlns="http://www.w3.org/2000/svg" xmlns:xlink="http://www.w3.org/1999/xlink" y="50"><style>@keyframes m{0%{transform:translateX(0)}11.18%{transform:translateX(-80px)}13.25%{transform:translateX(-160px)}14.79%{transform:translateX(-240px)}16.19%{transform:translateX(-320px)}17.38%{transform:translateX(-400px)}18.5%{transform:translateX(-480px)}19.71%{transform:translateX(-560px)}20.55%{transform:translateX(-640px)}21.33%{transform:translateX(-720px)}22.49%{transform:translateX(-800px)}24.41%{transform:translateX(-880px)}26.56%{transform:translateX(-960px)}34.01%{transform:translateX(-1040px)}34.17%{transform:translateX(-1120px)}39.24%{transform:translateX(-1200px)}39.25%{transform:translateX(-1280px)}44.9%{transform:translateX(-1440px)}52.81%{transform:translateX(-1520px)}57.34%{transform:translateX(-1600px)}63.01%{transform:translateX(-1680px)}63.06%{transform:translateX(-1760px)}70.52%{transform:translateX(-1840px)}78.6%{transform:translateX(-1920px)}78.7%{transform:translateX(-2000px)}85.07%{transform:translateX(-2080px)}85.11%{transform:translateX(-2160px)}91.65%{transform:translateX(-2240px)}96.24%{transform:translateX(-2320px)}97.75%{transform:translateX(-2480px)}to{transform:translateX(-2560px)}}.a{fill:#282d35}.f{fill:#a8cc8c;font-weight:700;white-space:pre}.g{fill:#b9c0cb}.g,.h,.i,.j{white-space:pre}.h{fill:#71bef2;font-weight:700}.i,.j{fill:#66c2cd}.j{fill:#a8cc8c}</style><g font-family="Monaco,Consolas,Menlo,'Bitstream Vera Sans Mono','Powerline Symbols',monospace" font-size="1.67"><defs><symbol id="1"><text y="1.67" class="f">amir@programming</text><text x="16.032" y="1.67" class="g">:</text><text x="17.034" y="1.67" class="h">~/Projects/nodejs-lessons/L8-OAuth-EmailSender</text><text x="63.126" y="1.67" class="g">$</text></symbol><symbol id="2"><text y="1.67" class="f">amir@programming</text><text x="16.032" y="1.67" class="g">:</text><text x="17.034" y="1.67" class="h">~/Projects/nodejs-lessons/L8-OAuth-EmailSender</text><text x="63.126" y="1.67" class="g">$</text><text x="65.13" y="1.67" class="g">npm</text></symbol><symbol id="3"><text y="1.67" class="f">amir@programming</text><text x="16.032" y="1.67" class="g">:</text><text x="17.034" y="1.67" class="h">~/Projects/nodejs-lessons/L8-OAuth-EmailSender</text><text x="63.126" y="1.67" class="g">$</text><text x="65.13" y="1.67" class="g">npm</text><text x="69.138" y="1.67" class="g">start</text></symbol><symbol id="4"><text y="1.67" class="g">&gt;</text><text x="2.004" y="1.67" class="g">l8-oauth-emailsender@1.0.0</text><text x="29.058" y="1.67" class="g">start</text><text x="35.07" y="1.67" class="g">/home/amir/Projects/nodejs-lessons/L8-OAuth-E</text></symbol><symbol id="5"><text y="1.67" class="g">mailSender</text></symbol><symbol id="6"><text y="1.67" class="g">&gt;</text><text x="2.004" y="1.67" class="g">node</text><text x="7.014" y="1.67" class="g">server.js</text></symbol><symbol id="7"><text y="1.67" class="g">server</text><text x="7.014" y="1.67" class="g">running</text><text x="15.03" y="1.67" class="g">on</text><text x="18.036" y="1.67" class="g">localhost:8080</text></symbol><symbol id="8"><text y="1.67" class="g">connected</text><text x="10.02" y="1.67" class="g">to</text><text x="13.026" y="1.67" class="g">mongodb...</text></symbol><symbol id="9"><text y="1.67" class="g">(node:6392)</text><text x="12.024" y="1.67" class="g">[DEP0066]</text><text x="22.044" y="1.67" class="g">DeprecationWarning:</text><text x="42.084" y="1.67" class="g">OutgoingMessage.prototype._headers</text><text x="77.154" y="1.67" class="g">is</text></symbol><symbol id="10"><text y="1.67" class="g">deprecated</text></symbol><symbol id="11"><text y="1.67" class="g">GET</text><text x="4.008" y="1.67" class="g">/</text><text x="6.012" y="1.67" class="i">304</text><text x="10.02" y="1.67" class="g">47.668</text><text x="17.034" y="1.67" class="g">ms</text><text x="20.04" y="1.67" class="g">-</text><text x="22.044" y="1.67" class="g">-</text></symbol><symbol id="12"><text y="1.67" class="g">GET</text><text x="4.008" y="1.67" class="g">/signup</text><text x="12.024" y="1.67" class="i">304</text><text x="16.032" y="1.67" class="g">4.238</text><text x="22.044" y="1.67" class="g">ms</text><text x="25.05" y="1.67" class="g">-</text><text x="27.054" y="1.67" class="g">-</text></symbol><symbol id="13"><text y="1.67" class="g">GET</text><text x="4.008" y="1.67" class="g">/</text><text x="6.012" y="1.67" class="i">304</text><text x="10.02" y="1.67" class="g">2.016</text><text x="16.032" y="1.67" class="g">ms</text><text x="19.038" y="1.67" class="g">-</text><text x="21.042" y="1.67" class="g">-</text></symbol><symbol id="14"><text y="1.67" class="g">GET</text><text x="4.008" y="1.67" class="g">/login</text><text x="11.022" y="1.67" class="j">200</text><text x="15.03" y="1.67" class="g">2.310</text><text x="21.042" y="1.67" class="g">ms</text><text x="24.048" y="1.67" class="g">-</text><text x="26.052" y="1.67" class="g">1082</text></symbol><symbol id="15"><text y="1.67" class="g">POST</text><text x="5.01" y="1.67" class="g">/login</text><text x="12.024" y="1.67" class="i">302</text><text x="16.032" y="1.67" class="g">128.469</text><text x="24.048" y="1.67" class="g">ms</text><text x="27.054" y="1.67" class="g">-</text><text x="29.058" y="1.67" class="g">56</text></symbol><symbol id="16"><text y="1.67" class="g">GET</text><text x="4.008" y="1.67" class="g">/login</text><text x="11.022" y="1.67" class="j">200</text><text x="15.03" y="1.67" class="g">2.466</text><text x="21.042" y="1.67" class="g">ms</text><text x="24.048" y="1.67" class="g">-</text><text x="26.052" y="1.67" class="g">1148</text></symbol><symbol id="17"><text y="1.67" class="g">GET</text><text x="4.008" y="1.67" class="g">/signup</text><text x="12.024" y="1.67" class="i">304</text><text x="16.032" y="1.67" class="g">4.448</text><text x="22.044" y="1.67" class="g">ms</text><text x="25.05" y="1.67" class="g">-</text><text x="27.054" y="1.67" class="g">-</text></symbol><symbol id="18"><text y="1.67" class="g">POST</text><text x="5.01" y="1.67" class="g">/signup</text><text x="13.026" y="1.67" class="i">302</text><text x="17.034" y="1.67" class="g">140.575</text><text x="25.05" y="1.67" class="g">ms</text><text x="28.056" y="1.67" class="g">-</text><text x="30.06" y="1.67" class="g">60</text></symbol><symbol id="19"><text y="1.67" class="g">GET</text><text x="4.008" y="1.67" class="g">/profile</text><text x="13.026" y="1.67" class="j">200</text><text x="17.034" y="1.67" class="g">10.771</text><text x="24.048" y="1.67" class="g">ms</text><text x="27.054" y="1.67" class="g">-</text><text x="29.058" y="1.67" class="g">1643</text></symbol><symbol id="20"><text y="1.67" class="g">GET</text><text x="4.008" y="1.67" class="g">/logout</text><text x="12.024" y="1.67" class="i">302</text><text x="16.032" y="1.67" class="g">5.427</text><text x="22.044" y="1.67" class="g">ms</text><text x="25.05" y="1.67" class="g">-</text><text x="27.054" y="1.67" class="g">46</text></symbol><symbol id="21"><text y="1.67" class="g">GET</text><text x="4.008" y="1.67" class="g">/</text><text x="6.012" y="1.67" class="i">304</text><text x="10.02" y="1.67" class="g">1.942</text><text x="16.032" y="1.67" class="g">ms</text><text x="19.038" y="1.67" class="g">-</text><text x="21.042" y="1.67" class="g">-</text></symbol><symbol id="22"><text y="1.67" class="g">Email</text><text x="6.012" y="1.67" class="g">sent:</text><text x="12.024" y="1.67" class="g">250</text><text x="16.032" y="1.67" class="g">2.0.0</text><text x="22.044" y="1.67" class="g">OK</text><text x="26.052" y="1.67" class="g">1605296441</text><text x="37.074" y="1.67" class="g">b24sm4691676edt.68</text><text x="56.112" y="1.67" class="g">-</text><text x="58.116" y="1.67" class="g">gsmtp</text></symbol><symbol id="23"><text y="1.67" class="g">^\Quit</text><text x="7.014" y="1.67" class="g">(core</text><text x="13.026" y="1.67" class="g">dumped)</text></symbol><symbol id="a"><path fill="transparent" d="M0 0h80v24H0z"/></symbol><symbol id="b"><path fill="#6f7683" d="M0 0h1.102v2.171H0z"/></symbol></defs><path class="a" d="M0 0h80v52.104H0z"/><g style="animation-duration:29.661248s;animation-iteration-count:infinite;animation-name:m;animation-timing-function:steps(1,end)"><svg width="2640"><svg><use xlink:href="#a"/><use xlink:href="#b" x="-.004"/></svg><svg x="80"><use xlink:href="#a"/><use xlink:href="#b" x="64.996"/><use xlink:href="#1"/></svg><svg x="160"><use xlink:href="#a"/><use xlink:href="#b" x="65.996"/><text y="1.67" class="f">amir@programming</text><text x="16.032" y="1.67" class="g">:</text><text x="17.034" y="1.67" class="h">~/Projects/nodejs-lessons/L8-OAuth-EmailSender</text><text x="63.126" y="1.67" class="g">$</text><text x="65.13" y="1.67" class="g">n</text></svg><svg x="240"><use xlink:href="#a"/><use xlink:href="#b" x="66.996"/><text y="1.67" class="f">amir@programming</text><text x="16.032" y="1.67" class="g">:</text><text x="17.034" y="1.67" class="h">~/Projects/nodejs-lessons/L8-OAuth-EmailSender</text><text x="63.126" y="1.67" class="g">$</text><text x="65.13" y="1.67" class="g">np</text></svg><svg x="320"><use xlink:href="#a"/><use xlink:href="#b" x="67.996"/><use xlink:href="#2"/></svg><svg x="400"><use xlink:href="#a"/><use xlink:href="#b" x="68.996"/><use xlink:href="#2"/></svg><svg x="480"><use xlink:href="#a"/><use xlink:href="#b" x="69.996"/><text y="1.67" class="f">amir@programming</text><text x="16.032" y="1.67" class="g">:</text><text x="17.034" y="1.67" class="h">~/Projects/nodejs-lessons/L8-OAuth-EmailSender</text><text x="63.126" y="1.67" class="g">$</text><text x="65.13" y="1.67" class="g">npm</text><text x="69.138" y="1.67" class="g">s</text></svg><svg x="560"><use xlink:href="#a"/><use xlink:href="#b" x="70.996"/><text y="1.67" class="f">amir@programming</text><text x="16.032" y="1.67" class="g">:</text><text x="17.034" y="1.67" class="h">~/Projects/nodejs-lessons/L8-OAuth-EmailSender</text><text x="63.126" y="1.67" class="g">$</text><text x="65.13" y="1.67" class="g">npm</text><text x="69.138" y="1.67" class="g">st</text></svg><svg x="640"><use xlink:href="#a"/><use xlink:href="#b" x="71.996"/><text y="1.67" class="f">amir@programming</text><text x="16.032" y="1.67" class="g">:</text><text x="17.034" y="1.67" class="h">~/Projects/nodejs-lessons/L8-OAuth-EmailSender</text><text x="63.126" y="1.67" class="g">$</text><text x="65.13" y="1.67" class="g">npm</text><text x="69.138" y="1.67" class="g">sta</text></svg><svg x="720"><use xlink:href="#a"/><use xlink:href="#b" x="72.996"/><text y="1.67" class="f">amir@programming</text><text x="16.032" y="1.67" class="g">:</text><text x="17.034" y="1.67" class="h">~/Projects/nodejs-lessons/L8-OAuth-EmailSender</text><text x="63.126" y="1.67" class="g">$</text><text x="65.13" y="1.67" class="g">npm</text><text x="69.138" y="1.67" class="g">star</text></svg><svg x="800"><use xlink:href="#a"/><use xlink:href="#b" x="73.996"/><use xlink:href="#3"/></svg><svg x="880"><use xlink:href="#a"/><use xlink:href="#b" x="-.004" y="2.146"/><use xlink:href="#3"/></svg><svg x="960"><use xlink:href="#a"/><use xlink:href="#b" x="-.004" y="13.001"/><use xlink:href="#3"/><use xlink:href="#4" y="4.342"/><use xlink:href="#5" y="6.513"/><use xlink:href="#6" y="8.684"/></svg><svg x="1040"><use xlink:href="#a"/><use xlink:href="#b" x="-.004" y="15.172"/><use xlink:href="#3"/><use xlink:href="#4" y="4.342"/><use xlink:href="#5" y="6.513"/><use xlink:href="#6" y="8.684"/><use xlink:href="#7" y="13.026"/></svg><svg x="1120"><use xlink:href="#a"/><use xlink:href="#b" x="-.004" y="17.343"/><use xlink:href="#3"/><use xlink:href="#4" y="4.342"/><use xlink:href="#5" y="6.513"/><use xlink:href="#6" y="8.684"/><use xlink:href="#7" y="13.026"/><use xlink:href="#8" y="15.197"/></svg><svg x="1200"><use xlink:href="#a"/><use xlink:href="#b" x="-.004" y="21.685"/><use xlink:href="#3"/><use xlink:href="#4" y="4.342"/><use xlink:href="#5" y="6.513"/><use xlink:href="#6" y="8.684"/><use xlink:href="#7" y="13.026"/><use xlink:href="#8" y="15.197"/><use xlink:href="#9" y="17.368"/><use xlink:href="#10" y="19.539"/></svg><svg x="1280"><use xlink:href="#a"/><use xlink:href="#b" x="-.004" y="23.856"/><use xlink:href="#3"/><use xlink:href="#4" y="4.342"/><use xlink:href="#5" y="6.513"/><use xlink:href="#6" y="8.684"/><use xlink:href="#7" y="13.026"/><use xlink:href="#8" y="15.197"/><use xlink:href="#9" y="17.368"/><use xlink:href="#10" y="19.539"/><use xlink:href="#11" y="21.71"/></svg><svg x="1360"><use xlink:href="#a"/><use xlink:href="#b" x="27.996" y="23.856"/><use xlink:href="#3"/><use xlink:href="#4" y="4.342"/><use xlink:href="#5" y="6.513"/><use xlink:href="#6" y="8.684"/><use xlink:href="#7" y="13.026"/><use xlink:href="#8" y="15.197"/><use xlink:href="#9" y="17.368"/><use xlink:href="#10" y="19.539"/><use xlink:href="#11" y="21.71"/><use xlink:href="#12" y="23.881"/></svg><svg x="1440"><use xlink:href="#a"/><use xlink:href="#b" x="-.004" y="26.027"/><use xlink:href="#3"/><use xlink:href="#4" y="4.342"/><use xlink:href="#5" y="6.513"/><use xlink:href="#6" y="8.684"/><use xlink:href="#7" y="13.026"/><use xlink:href="#8" y="15.197"/><use xlink:href="#9" y="17.368"/><use xlink:href="#10" y="19.539"/><use xlink:href="#11" y="21.71"/><use xlink:href="#12" y="23.881"/></svg><svg x="1520"><use xlink:href="#a"/><use xlink:href="#b" x="-.004" y="28.198"/><use xlink:href="#3"/><use xlink:href="#4" y="4.342"/><use xlink:href="#5" y="6.513"/><use xlink:href="#6" y="8.684"/><use xlink:href="#7" y="13.026"/><use xlink:href="#8" y="15.197"/><use xlink:href="#9" y="17.368"/><use xlink:href="#10" y="19.539"/><use xlink:href="#11" y="21.71"/><use xlink:href="#12" y="23.881"/><use xlink:href="#13" y="26.052"/></svg><svg x="1600"><use xlink:href="#a"/><use xlink:href="#b" x="-.004" y="30.369"/><use xlink:href="#3"/><use xlink:href="#4" y="4.342"/><use xlink:href="#5" y="6.513"/><use xlink:href="#6" y="8.684"/><use xlink:href="#7" y="13.026"/><use xlink:href="#8" y="15.197"/><use xlink:href="#9" y="17.368"/><use xlink:href="#10" y="19.539"/><use xlink:href="#11" y="21.71"/><use xlink:href="#12" y="23.881"/><use xlink:href="#13" y="26.052"/><use xlink:href="#14" y="28.223"/></svg><svg x="1680"><use xlink:href="#a"/><use xlink:href="#b" x="-.004" y="32.54"/><use xlink:href="#3"/><use xlink:href="#4" y="4.342"/><use xlink:href="#5" y="6.513"/><use xlink:href="#6" y="8.684"/><use xlink:href="#7" y="13.026"/><use xlink:href="#8" y="15.197"/><use xlink:href="#9" y="17.368"/><use xlink:href="#10" y="19.539"/><use xlink:href="#11" y="21.71"/><use xlink:href="#12" y="23.881"/><use xlink:href="#13" y="26.052"/><use xlink:href="#14" y="28.223"/><use xlink:href="#15" y="30.394"/></svg><svg x="1760"><use xlink:href="#a"/><use xlink:href="#b" x="-.004" y="34.711"/><use xlink:href="#3"/><use xlink:href="#4" y="4.342"/><use xlink:href="#5" y="6.513"/><use xlink:href="#6" y="8.684"/><use xlink:href="#7" y="13.026"/><use xlink:href="#8" y="15.197"/><use xlink:href="#9" y="17.368"/><use xlink:href="#10" y="19.539"/><use xlink:href="#11" y="21.71"/><use xlink:href="#12" y="23.881"/><use xlink:href="#13" y="26.052"/><use xlink:href="#14" y="28.223"/><use xlink:href="#15" y="30.394"/><use xlink:href="#16" y="32.565"/></svg><svg x="1840"><use xlink:href="#a"/><use xlink:href="#b" x="-.004" y="36.882"/><use xlink:href="#3"/><use xlink:href="#4" y="4.342"/><use xlink:href="#5" y="6.513"/><use xlink:href="#6" y="8.684"/><use xlink:href="#7" y="13.026"/><use xlink:href="#8" y="15.197"/><use xlink:href="#9" y="17.368"/><use xlink:href="#10" y="19.539"/><use xlink:href="#11" y="21.71"/><use xlink:href="#12" y="23.881"/><use xlink:href="#13" y="26.052"/><use xlink:href="#14" y="28.223"/><use xlink:href="#15" y="30.394"/><use xlink:href="#16" y="32.565"/><use xlink:href="#17" y="34.736"/></svg><svg x="1920"><use xlink:href="#a"/><use xlink:href="#b" x="-.004" y="39.053"/><use xlink:href="#3"/><use xlink:href="#4" y="4.342"/><use xlink:href="#5" y="6.513"/><use xlink:href="#6" y="8.684"/><use xlink:href="#7" y="13.026"/><use xlink:href="#8" y="15.197"/><use xlink:href="#9" y="17.368"/><use xlink:href="#10" y="19.539"/><use xlink:href="#11" y="21.71"/><use xlink:href="#12" y="23.881"/><use xlink:href="#13" y="26.052"/><use xlink:href="#14" y="28.223"/><use xlink:href="#15" y="30.394"/><use xlink:href="#16" y="32.565"/><use xlink:href="#17" y="34.736"/><use xlink:href="#18" y="36.907"/></svg><svg x="2000"><use xlink:href="#a"/><use xlink:href="#b" x="-.004" y="41.224"/><use xlink:href="#3"/><use xlink:href="#4" y="4.342"/><use xlink:href="#5" y="6.513"/><use xlink:href="#6" y="8.684"/><use xlink:href="#7" y="13.026"/><use xlink:href="#8" y="15.197"/><use xlink:href="#9" y="17.368"/><use xlink:href="#10" y="19.539"/><use xlink:href="#11" y="21.71"/><use xlink:href="#12" y="23.881"/><use xlink:href="#13" y="26.052"/><use xlink:href="#14" y="28.223"/><use xlink:href="#15" y="30.394"/><use xlink:href="#16" y="32.565"/><use xlink:href="#17" y="34.736"/><use xlink:href="#18" y="36.907"/><use xlink:href="#19" y="39.078"/></svg><svg x="2080"><use xlink:href="#a"/><use xlink:href="#b" x="-.004" y="43.395"/><use xlink:href="#3"/><use xlink:href="#4" y="4.342"/><use xlink:href="#5" y="6.513"/><use xlink:href="#6" y="8.684"/><use xlink:href="#7" y="13.026"/><use xlink:href="#8" y="15.197"/><use xlink:href="#9" y="17.368"/><use xlink:href="#10" y="19.539"/><use xlink:href="#11" y="21.71"/><use xlink:href="#12" y="23.881"/><use xlink:href="#13" y="26.052"/><use xlink:href="#14" y="28.223"/><use xlink:href="#15" y="30.394"/><use xlink:href="#16" y="32.565"/><use xlink:href="#17" y="34.736"/><use xlink:href="#18" y="36.907"/><use xlink:href="#19" y="39.078"/><use xlink:href="#20" y="41.249"/></svg><svg x="2160"><use xlink:href="#a"/><use xlink:href="#b" x="-.004" y="45.566"/><use xlink:href="#3"/><use xlink:href="#4" y="4.342"/><use xlink:href="#5" y="6.513"/><use xlink:href="#6" y="8.684"/><use xlink:href="#7" y="13.026"/><use xlink:href="#8" y="15.197"/><use xlink:href="#9" y="17.368"/><use xlink:href="#10" y="19.539"/><use xlink:href="#11" y="21.71"/><use xlink:href="#12" y="23.881"/><use xlink:href="#13" y="26.052"/><use xlink:href="#14" y="28.223"/><use xlink:href="#15" y="30.394"/><use xlink:href="#16" y="32.565"/><use xlink:href="#17" y="34.736"/><use xlink:href="#18" y="36.907"/><use xlink:href="#19" y="39.078"/><use xlink:href="#20" y="41.249"/><use xlink:href="#21" y="43.42"/></svg><svg x="2240"><use xlink:href="#a"/><use xlink:href="#b" x="-.004" y="47.737"/><use xlink:href="#3"/><use xlink:href="#4" y="4.342"/><use xlink:href="#5" y="6.513"/><use xlink:href="#6" y="8.684"/><use xlink:href="#7" y="13.026"/><use xlink:href="#8" y="15.197"/><use xlink:href="#9" y="17.368"/><use xlink:href="#10" y="19.539"/><use xlink:href="#11" y="21.71"/><use xlink:href="#12" y="23.881"/><use xlink:href="#13" y="26.052"/><use xlink:href="#14" y="28.223"/><use xlink:href="#15" y="30.394"/><use xlink:href="#16" y="32.565"/><use xlink:href="#17" y="34.736"/><use xlink:href="#18" y="36.907"/><use xlink:href="#19" y="39.078"/><use xlink:href="#20" y="41.249"/><use xlink:href="#21" y="43.42"/><use xlink:href="#22" y="45.591"/></svg><svg x="2320"><use xlink:href="#a"/><use xlink:href="#b" x="1.996" y="47.737"/><use xlink:href="#3"/><use xlink:href="#4" y="4.342"/><use xlink:href="#5" y="6.513"/><use xlink:href="#6" y="8.684"/><use xlink:href="#7" y="13.026"/><use xlink:href="#8" y="15.197"/><use xlink:href="#9" y="17.368"/><use xlink:href="#10" y="19.539"/><use xlink:href="#11" y="21.71"/><use xlink:href="#12" y="23.881"/><use xlink:href="#13" y="26.052"/><use xlink:href="#14" y="28.223"/><use xlink:href="#15" y="30.394"/><use xlink:href="#16" y="32.565"/><use xlink:href="#17" y="34.736"/><use xlink:href="#18" y="36.907"/><use xlink:href="#19" y="39.078"/><use xlink:href="#20" y="41.249"/><use xlink:href="#21" y="43.42"/><use xlink:href="#22" y="45.591"/><text y="49.432" class="g">^\</text></svg><svg x="2400"><use xlink:href="#a"/><use xlink:href="#b" x="-.004" y="49.908"/><use xlink:href="#3"/><use xlink:href="#4" y="4.342"/><use xlink:href="#5" y="6.513"/><use xlink:href="#6" y="8.684"/><use xlink:href="#7" y="13.026"/><use xlink:href="#8" y="15.197"/><use xlink:href="#9" y="17.368"/><use xlink:href="#10" y="19.539"/><use xlink:href="#11" y="21.71"/><use xlink:href="#12" y="23.881"/><use xlink:href="#13" y="26.052"/><use xlink:href="#14" y="28.223"/><use xlink:href="#15" y="30.394"/><use xlink:href="#16" y="32.565"/><use xlink:href="#17" y="34.736"/><use xlink:href="#18" y="36.907"/><use xlink:href="#19" y="39.078"/><use xlink:href="#20" y="41.249"/><use xlink:href="#21" y="43.42"/><use xlink:href="#22" y="45.591"/><use xlink:href="#23" y="47.762"/></svg><svg x="2480"><use xlink:href="#a"/><use xlink:href="#b" x="64.996" y="49.908"/><use xlink:href="#3"/><use xlink:href="#4" y="4.342"/><use xlink:href="#5" y="6.513"/><use xlink:href="#6" y="8.684"/><use xlink:href="#7" y="13.026"/><use xlink:href="#8" y="15.197"/><use xlink:href="#9" y="17.368"/><use xlink:href="#10" y="19.539"/><use xlink:href="#11" y="21.71"/><use xlink:href="#12" y="23.881"/><use xlink:href="#13" y="26.052"/><use xlink:href="#14" y="28.223"/><use xlink:href="#15" y="30.394"/><use xlink:href="#16" y="32.565"/><use xlink:href="#17" y="34.736"/><use xlink:href="#18" y="36.907"/><use xlink:href="#19" y="39.078"/><use xlink:href="#20" y="41.249"/><use xlink:href="#21" y="43.42"/><use xlink:href="#22" y="45.591"/><use xlink:href="#23" y="47.762"/><use xlink:href="#1" y="49.933"/></svg><svg x="2560"><use xlink:href="#a"/><use xlink:href="#b" x="-.004" y="49.908"/><use xlink:href="#4" y="2.171"/><use xlink:href="#5" y="4.342"/><use xlink:href="#6" y="6.513"/><use xlink:href="#7" y="10.855"/><use xlink:href="#8" y="13.026"/><use xlink:href="#9" y="15.197"/><use xlink:href="#10" y="17.368"/><use xlink:href="#11" y="19.539"/><use xlink:href="#12" y="21.71"/><use xlink:href="#13" y="23.881"/><use xlink:href="#14" y="26.052"/><use xlink:href="#15" y="28.223"/><use xlink:href="#16" y="30.394"/><use xlink:href="#17" y="32.565"/><use xlink:href="#18" y="34.736"/><use xlink:href="#19" y="36.907"/><use xlink:href="#20" y="39.078"/><use xlink:href="#21" y="41.249"/><use xlink:href="#22" y="43.42"/><use xlink:href="#23" y="45.591"/><text y="49.432" class="f">amir@programming</text><text x="16.032" y="49.432" class="g">:</text><text x="17.034" y="49.432" class="h">~/Projects/nodejs-lessons/L8-OAuth-EmailSender</text><text x="63.126" y="49.432" class="g">$</text><text x="65.13" y="49.432" class="g">exit</text></svg></svg></g></g></svg></svg>