<svg xmlns="http://www.w3.org/2000/svg" xmlns:xlink="http://www.w3.org/1999/xlink" width="840" height="363.94"><rect width="840" height="363.94" rx="5" ry="5" class="a"/><svg y="0%" x="0%"><circle cx="20" cy="20" r="6" fill="#ff5f58"/><circle cx="40" cy="20" r="6" fill="#ffbd2e"/><circle cx="60" cy="20" r="6" fill="#18c132"/></svg><svg height="303.94" viewBox="0 0 80 30.394" width="800" x="15" xmlns="http://www.w3.org/2000/svg" xmlns:xlink="http://www.w3.org/1999/xlink" y="50"><style>@keyframes k{0%{transform:translateX(0)}6.9%{transform:translateX(-80px)}14.6%{transform:translateX(-160px)}19.4%{transform:translateX(-240px)}25.1%{transform:translateX(-320px)}29.6%{transform:translateX(-400px)}33.9%{transform:translateX(-480px)}39.1%{transform:translateX(-560px)}42.4%{transform:translateX(-640px)}48.9%{transform:translateX(-720px)}53.5%{transform:translateX(-800px)}61%{transform:translateX(-880px)}66.3%{transform:translateX(-960px)}71.9%{transform:translateX(-1040px)}72.3%{transform:translateX(-1120px)}96.2%{transform:translateX(-1200px)}96.4%{transform:translateX(-1360px)}to{transform:translateX(-1440px)}}.a{fill:#282d35}.f,.g,.h{white-space:pre}.f{fill:#a8cc8c;font-weight:700}.g,.h{fill:#b9c0cb}.h{fill:#71bef2;font-weight:700}</style><g font-family="Monaco,Consolas,Menlo,'Bitstream Vera Sans Mono','Powerline Symbols',monospace" font-size="1.67"><defs><symbol id="1"><text y="1.67" class="f">amir@programming</text><text x="16.032" y="1.67" class="g">:</text><text x="17.034" y="1.67" class="h">~/Projects/nodejs-lessons/L7-mongodb-database</text><text x="62.124" y="1.67" class="g">$</text></symbol><symbol id="2"><text y="1.67" class="f">amir@programming</text><text x="16.032" y="1.67" class="g">:</text><text x="17.034" y="1.67" class="h">~/Projects/nodejs-lessons/L7-mongodb-database</text><text x="62.124" y="1.67" class="g">$</text><text x="64.128" y="1.67" class="g">npm</text></symbol><symbol id="3"><text y="1.67" class="f">amir@programming</text><text x="16.032" y="1.67" class="g">:</text><text x="17.034" y="1.67" class="h">~/Projects/nodejs-lessons/L7-mongodb-database</text><text x="62.124" y="1.67" class="g">$</text><text x="64.128" y="1.67" class="g">npm</text><text x="68.136" y="1.67" class="g">start</text></symbol><symbol id="4"><text y="1.67" class="g">&gt;</text><text x="2.004" y="1.67" class="g">l7-mongodb-database@2.0.0</text><text x="28.056" y="1.67" class="g">start</text><text x="34.068" y="1.67" class="g">/home/amir/Projects/nodejs-lessons/L7-mongodb-</text></symbol><symbol id="5"><text y="1.67" class="g">database</text></symbol><symbol id="6"><text y="1.67" class="g">&gt;</text><text x="2.004" y="1.67" class="g">node</text><text x="7.014" y="1.67" class="g">server.js</text></symbol><symbol id="7"><text y="1.67" class="g">server</text><text x="7.014" y="1.67" class="g">running</text><text x="15.03" y="1.67" class="g">on</text><text x="18.036" y="1.67" class="g">port</text><text x="23.046" y="1.67" class="g">3000</text><text x="28.056" y="1.67" class="g">successfully...</text></symbol><symbol id="8"><text y="1.67" class="g">connected</text><text x="10.02" y="1.67" class="g">to</text><text x="13.026" y="1.67" class="g">mongodb...</text></symbol><symbol id="9"><text y="1.67" class="g">^C</text></symbol><symbol id="a"><path fill="transparent" d="M0 0h80v14H0z"/></symbol><symbol id="b"><path fill="#6f7683" d="M0 0h1.102v2.171H0z"/></symbol></defs><path class="a" d="M0 0h80v30.394H0z"/><g style="animation-duration:8.438775s;animation-iteration-count:infinite;animation-name:k;animation-timing-function:steps(1,end)"><svg width="1520"><svg><use xlink:href="#a"/><use xlink:href="#b" x="-.004"/></svg><svg x="80"><use xlink:href="#a"/><use xlink:href="#b" x="63.996"/><use xlink:href="#1"/></svg><svg x="160"><use xlink:href="#a"/><use xlink:href="#b" x="64.996"/><text y="1.67" class="f">amir@programming</text><text x="16.032" y="1.67" class="g">:</text><text x="17.034" y="1.67" class="h">~/Projects/nodejs-lessons/L7-mongodb-database</text><text x="62.124" y="1.67" class="g">$</text><text x="64.128" y="1.67" class="g">n</text></svg><svg x="240"><use xlink:href="#a"/><use xlink:href="#b" x="65.996"/><text y="1.67" class="f">amir@programming</text><text x="16.032" y="1.67" class="g">:</text><text x="17.034" y="1.67" class="h">~/Projects/nodejs-lessons/L7-mongodb-database</text><text x="62.124" y="1.67" class="g">$</text><text x="64.128" y="1.67" class="g">np</text></svg><svg x="320"><use xlink:href="#a"/><use xlink:href="#b" x="66.996"/><use xlink:href="#2"/></svg><svg x="400"><use xlink:href="#a"/><use xlink:href="#b" x="67.996"/><use xlink:href="#2"/></svg><svg x="480"><use xlink:href="#a"/><use xlink:href="#b" x="68.996"/><text y="1.67" class="f">amir@programming</text><text x="16.032" y="1.67" class="g">:</text><text x="17.034" y="1.67" class="h">~/Projects/nodejs-lessons/L7-mongodb-database</text><text x="62.124" y="1.67" class="g">$</text><text x="64.128" y="1.67" class="g">npm</text><text x="68.136" y="1.67" class="g">s</text></svg><svg x="560"><use xlink:href="#a"/><use xlink:href="#b" x="69.996"/><text y="1.67" class="f">amir@programming</text><text x="16.032" y="1.67" class="g">:</text><text x="17.034" y="1.67" class="h">~/Projects/nodejs-lessons/L7-mongodb-database</text><text x="62.124" y="1.67" class="g">$</text><text x="64.128" y="1.67" class="g">npm</text><text x="68.136" y="1.67" class="g">st</text></svg><svg x="640"><use xlink:href="#a"/><use xlink:href="#b" x="70.996"/><text y="1.67" class="f">amir@programming</text><text x="16.032" y="1.67" class="g">:</text><text x="17.034" y="1.67" class="h">~/Projects/nodejs-lessons/L7-mongodb-database</text><text x="62.124" y="1.67" class="g">$</text><text x="64.128" y="1.67" class="g">npm</text><text x="68.136" y="1.67" class="g">sta</text></svg><svg x="720"><use xlink:href="#a"/><use xlink:href="#b" x="71.996"/><text y="1.67" class="f">amir@programming</text><text x="16.032" y="1.67" class="g">:</text><text x="17.034" y="1.67" class="h">~/Projects/nodejs-lessons/L7-mongodb-database</text><text x="62.124" y="1.67" class="g">$</text><text x="64.128" y="1.67" class="g">npm</text><text x="68.136" y="1.67" class="g">star</text></svg><svg x="800"><use xlink:href="#a"/><use xlink:href="#b" x="72.996"/><use xlink:href="#3"/></svg><svg x="880"><use xlink:href="#a"/><use xlink:href="#b" x="-.004" y="2.146"/><use xlink:href="#3"/></svg><svg x="960"><use xlink:href="#a"/><use xlink:href="#b" x="-.004" y="13.001"/><use xlink:href="#3"/><use xlink:href="#4" y="4.342"/><use xlink:href="#5" y="6.513"/><use xlink:href="#6" y="8.684"/></svg><svg x="1040"><use xlink:href="#a"/><use xlink:href="#b" x="-.004" y="15.172"/><use xlink:href="#3"/><use xlink:href="#4" y="4.342"/><use xlink:href="#5" y="6.513"/><use xlink:href="#6" y="8.684"/><use xlink:href="#7" y="13.026"/></svg><svg x="1120"><use xlink:href="#a"/><use xlink:href="#b" x="-.004" y="17.343"/><use xlink:href="#3"/><use xlink:href="#4" y="4.342"/><use xlink:href="#5" y="6.513"/><use xlink:href="#6" y="8.684"/><use xlink:href="#7" y="13.026"/><use xlink:href="#8" y="15.197"/></svg><svg x="1200"><use xlink:href="#a"/><use xlink:href="#b" x="1.996" y="17.343"/><use xlink:href="#3"/><use xlink:href="#4" y="4.342"/><use xlink:href="#5" y="6.513"/><use xlink:href="#6" y="8.684"/><use xlink:href="#7" y="13.026"/><use xlink:href="#8" y="15.197"/><use xlink:href="#9" y="17.368"/></svg><svg x="1280"><use xlink:href="#a"/><use xlink:href="#b" x="-.004" y="19.514"/><use xlink:href="#3"/><use xlink:href="#4" y="4.342"/><use xlink:href="#5" y="6.513"/><use xlink:href="#6" y="8.684"/><use xlink:href="#7" y="13.026"/><use xlink:href="#8" y="15.197"/><use xlink:href="#9" y="17.368"/></svg><svg x="1360"><use xlink:href="#a"/><use xlink:href="#b" x="63.996" y="19.514"/><use xlink:href="#3"/><use xlink:href="#4" y="4.342"/><use xlink:href="#5" y="6.513"/><use xlink:href="#6" y="8.684"/><use xlink:href="#7" y="13.026"/><use xlink:href="#8" y="15.197"/><use xlink:href="#9" y="17.368"/><use xlink:href="#1" y="19.539"/></svg><svg x="1440"><use xlink:href="#a"/><use xlink:href="#b" x="-.004" y="21.685"/><use xlink:href="#3"/><use xlink:href="#4" y="4.342"/><use xlink:href="#5" y="6.513"/><use xlink:href="#6" y="8.684"/><use xlink:href="#7" y="13.026"/><use xlink:href="#8" y="15.197"/><use xlink:href="#9" y="17.368"/><text y="21.209" class="f">amir@programming</text><text x="16.032" y="21.209" class="g">:</text><text x="17.034" y="21.209" class="h">~/Projects/nodejs-lessons/L7-mongodb-database</text><text x="62.124" y="21.209" class="g">$</text><text x="64.128" y="21.209" class="g">exit</text></svg></svg></g></g></svg></svg>