<svg xmlns="http://www.w3.org/2000/svg" xmlns:xlink="http://www.w3.org/1999/xlink" width="840" height="581.04"><rect width="840" height="581.04" rx="5" ry="5" class="a"/><svg y="0%" x="0%"><circle cx="20" cy="20" r="6" fill="#ff5f58"/><circle cx="40" cy="20" r="6" fill="#ffbd2e"/><circle cx="60" cy="20" r="6" fill="#18c132"/></svg><svg height="521.04" viewBox="0 0 80 52.104" width="800" x="15" xmlns="http://www.w3.org/2000/svg" xmlns:xlink="http://www.w3.org/1999/xlink" y="50"><style>@keyframes m{0%{transform:translateX(0)}.3%{transform:translateX(-80px)}12.6%{transform:translateX(-160px)}15.7%{transform:translateX(-240px)}19.1%{transform:translateX(-320px)}23.1%{transform:translateX(-400px)}25.9%{transform:translateX(-480px)}28%{transform:translateX(-560px)}29.8%{transform:translateX(-640px)}31.2%{transform:translateX(-720px)}33.2%{transform:translateX(-800px)}37.6%{transform:translateX(-880px)}44%{transform:translateX(-960px)}48.8%{transform:translateX(-1360px)}57.7%{transform:translateX(-1440px)}57.9%{transform:translateX(-1520px)}88.3%{transform:translateX(-1600px)}95.3%{transform:translateX(-1680px)}98.3%{transform:translateX(-1840px)}to{transform:translateX(-1920px)}}.a{fill:#282d35}.f{fill:#a8cc8c;font-weight:700;white-space:pre}.g{fill:#b9c0cb}.g,.h,.i,.j{white-space:pre}.h{fill:#71bef2;font-weight:700}.i,.j{fill:#dbab79}.j{fill:#a8cc8c}</style><g font-family="Monaco,Consolas,Menlo,'Bitstream Vera Sans Mono','Powerline Symbols',monospace" font-size="1.67"><defs><symbol id="9"><text y="1.67" class="i">[nodemon]</text><text x="10.02" y="1.67" class="i">watching</text><text x="19.038" y="1.67" class="i">extensions:</text><text x="31.062" y="1.67" class="i">js,mjs,json</text></symbol><symbol id="1"><text y="1.67" class="f">amiryeg@dev</text><text x="11.022" y="1.67" class="g">:</text><text x="12.024" y="1.67" class="h">~/Projects/nodejs-lessons/L9-file-upload</text><text x="52.104" y="1.67" class="g">$</text></symbol><symbol id="3"><text y="1.67" class="f">amiryeg@dev</text><text x="11.022" y="1.67" class="g">:</text><text x="12.024" y="1.67" class="h">~/Projects/nodejs-lessons/L9-file-upload</text><text x="52.104" y="1.67" class="g">$</text><text x="54.108" y="1.67" class="g">npm</text><text x="58.116" y="1.67" class="g">start</text></symbol><symbol id="4"><text y="1.67" class="g">&gt;</text><text x="2.004" y="1.67" class="g">l9-file-upload@1.0.0</text><text x="23.046" y="1.67" class="g">start</text></symbol><symbol id="5"><text y="1.67" class="g">&gt;</text><text x="2.004" y="1.67" class="g">nodemon</text><text x="10.02" y="1.67" class="g">server.js</text></symbol><symbol id="6"><text y="1.67" class="i">[nodemon]</text><text x="10.02" y="1.67" class="i">2.0.7</text></symbol><symbol id="7"><text y="1.67" class="i">[nodemon]</text><text x="10.02" y="1.67" class="i">to</text><text x="13.026" y="1.67" class="i">restart</text><text x="21.042" y="1.67" class="i">at</text><text x="24.048" y="1.67" class="i">any</text><text x="28.056" y="1.67" class="i">time,</text><text x="34.068" y="1.67" class="i">enter</text><text x="40.08" y="1.67" class="i">`rs`</text></symbol><symbol id="8"><text y="1.67" class="i">[nodemon]</text><text x="10.02" y="1.67" class="i">watching</text><text x="19.038" y="1.67" class="i">path(s):</text><text x="28.056" y="1.67" class="i">*.*</text></symbol><symbol id="2"><text y="1.67" class="f">amiryeg@dev</text><text x="11.022" y="1.67" class="g">:</text><text x="12.024" y="1.67" class="h">~/Projects/nodejs-lessons/L9-file-upload</text><text x="52.104" y="1.67" class="g">$</text><text x="54.108" y="1.67" class="g">npm</text></symbol><symbol id="10"><text y="1.67" class="j">[nodemon]</text><text x="10.02" y="1.67" class="j">starting</text><text x="19.038" y="1.67" class="j">`node</text><text x="25.05" y="1.67" class="j">server.js`</text></symbol><symbol id="11"><text y="1.67" class="g">server</text><text x="7.014" y="1.67" class="g">running</text><text x="15.03" y="1.67" class="g">on</text><text x="18.036" y="1.67" class="g">port</text><text x="23.046" y="1.67" class="g">3000</text><text x="28.056" y="1.67" class="g">successfully...</text></symbol><symbol id="12"><text y="1.67" class="g">connected</text><text x="10.02" y="1.67" class="g">to</text><text x="13.026" y="1.67" class="g">mongodb...</text></symbol><symbol id="13"><text y="1.67" class="g">l9-file-upload</text><text x="15.03" y="1.67" class="g">already</text><text x="23.046" y="1.67" class="g">exists</text></symbol><symbol id="14"><text y="1.67" class="g">^\Quit</text><text x="7.014" y="1.67" class="g">(core</text><text x="13.026" y="1.67" class="g">dumped)</text></symbol><symbol id="a"><path fill="transparent" d="M0 0h80v24H0z"/></symbol><symbol id="b"><path fill="#6f7683" d="M0 0h1.102v2.171H0z"/></symbol></defs><path class="a" d="M0 0h80v52.104H0z"/><g style="animation-duration:13.123359s;animation-iteration-count:infinite;animation-name:m;animation-timing-function:steps(1,end)"><svg width="2000"><svg><use xlink:href="#a"/><use xlink:href="#b" x="-.004"/></svg><svg x="80"><use xlink:href="#a"/><use xlink:href="#b" x="53.996"/><use xlink:href="#1"/></svg><svg x="160"><use xlink:href="#a"/><use xlink:href="#b" x="54.996"/><text y="1.67" class="f">amiryeg@dev</text><text x="11.022" y="1.67" class="g">:</text><text x="12.024" y="1.67" class="h">~/Projects/nodejs-lessons/L9-file-upload</text><text x="52.104" y="1.67" class="g">$</text><text x="54.108" y="1.67" class="g">n</text></svg><svg x="240"><use xlink:href="#a"/><use xlink:href="#b" x="55.996"/><text y="1.67" class="f">amiryeg@dev</text><text x="11.022" y="1.67" class="g">:</text><text x="12.024" y="1.67" class="h">~/Projects/nodejs-lessons/L9-file-upload</text><text x="52.104" y="1.67" class="g">$</text><text x="54.108" y="1.67" class="g">np</text></svg><svg x="320"><use xlink:href="#a"/><use xlink:href="#b" x="56.996"/><use xlink:href="#2"/></svg><svg x="400"><use xlink:href="#a"/><use xlink:href="#b" x="57.996"/><use xlink:href="#2"/></svg><svg x="480"><use xlink:href="#a"/><use xlink:href="#b" x="58.996"/><text y="1.67" class="f">amiryeg@dev</text><text x="11.022" y="1.67" class="g">:</text><text x="12.024" y="1.67" class="h">~/Projects/nodejs-lessons/L9-file-upload</text><text x="52.104" y="1.67" class="g">$</text><text x="54.108" y="1.67" class="g">npm</text><text x="58.116" y="1.67" class="g">s</text></svg><svg x="560"><use xlink:href="#a"/><use xlink:href="#b" x="59.996"/><text y="1.67" class="f">amiryeg@dev</text><text x="11.022" y="1.67" class="g">:</text><text x="12.024" y="1.67" class="h">~/Projects/nodejs-lessons/L9-file-upload</text><text x="52.104" y="1.67" class="g">$</text><text x="54.108" y="1.67" class="g">npm</text><text x="58.116" y="1.67" class="g">st</text></svg><svg x="640"><use xlink:href="#a"/><use xlink:href="#b" x="60.996"/><text y="1.67" class="f">amiryeg@dev</text><text x="11.022" y="1.67" class="g">:</text><text x="12.024" y="1.67" class="h">~/Projects/nodejs-lessons/L9-file-upload</text><text x="52.104" y="1.67" class="g">$</text><text x="54.108" y="1.67" class="g">npm</text><text x="58.116" y="1.67" class="g">sta</text></svg><svg x="720"><use xlink:href="#a"/><use xlink:href="#b" x="61.996"/><text y="1.67" class="f">amiryeg@dev</text><text x="11.022" y="1.67" class="g">:</text><text x="12.024" y="1.67" class="h">~/Projects/nodejs-lessons/L9-file-upload</text><text x="52.104" y="1.67" class="g">$</text><text x="54.108" y="1.67" class="g">npm</text><text x="58.116" y="1.67" class="g">star</text></svg><svg x="800"><use xlink:href="#a"/><use xlink:href="#b" x="62.996"/><use xlink:href="#3"/></svg><svg x="880"><use xlink:href="#a"/><use xlink:href="#b" x="-.004" y="2.146"/><use xlink:href="#3"/></svg><svg x="960"><use xlink:href="#a"/><use xlink:href="#b" x="-.004" y="10.83"/><use xlink:href="#3"/><use xlink:href="#4" y="4.342"/><use xlink:href="#5" y="6.513"/></svg><svg x="1040"><use xlink:href="#a"/><use xlink:href="#b" x="-.004" y="13.001"/><use xlink:href="#3"/><use xlink:href="#4" y="4.342"/><use xlink:href="#5" y="6.513"/><use xlink:href="#6" y="10.855"/></svg><svg x="1120"><use xlink:href="#a"/><use xlink:href="#b" x="-.004" y="15.172"/><use xlink:href="#3"/><use xlink:href="#4" y="4.342"/><use xlink:href="#5" y="6.513"/><use xlink:href="#6" y="10.855"/><use xlink:href="#7" y="13.026"/></svg><svg x="1200"><use xlink:href="#a"/><use xlink:href="#b" x="-.004" y="17.343"/><use xlink:href="#3"/><use xlink:href="#4" y="4.342"/><use xlink:href="#5" y="6.513"/><use xlink:href="#6" y="10.855"/><use xlink:href="#7" y="13.026"/><use xlink:href="#8" y="15.197"/></svg><svg x="1280"><use xlink:href="#a"/><use xlink:href="#b" x="-.004" y="19.514"/><use xlink:href="#3"/><use xlink:href="#4" y="4.342"/><use xlink:href="#5" y="6.513"/><use xlink:href="#6" y="10.855"/><use xlink:href="#7" y="13.026"/><use xlink:href="#8" y="15.197"/><use xlink:href="#9" y="17.368"/></svg><svg x="1360"><use xlink:href="#a"/><use xlink:href="#b" x="-.004" y="21.685"/><use xlink:href="#3"/><use xlink:href="#4" y="4.342"/><use xlink:href="#5" y="6.513"/><use xlink:href="#6" y="10.855"/><use xlink:href="#7" y="13.026"/><use xlink:href="#8" y="15.197"/><use xlink:href="#9" y="17.368"/><use xlink:href="#10" y="19.539"/></svg><svg x="1440"><use xlink:href="#a"/><use xlink:href="#b" x="-.004" y="23.856"/><use xlink:href="#3"/><use xlink:href="#4" y="4.342"/><use xlink:href="#5" y="6.513"/><use xlink:href="#6" y="10.855"/><use xlink:href="#7" y="13.026"/><use xlink:href="#8" y="15.197"/><use xlink:href="#9" y="17.368"/><use xlink:href="#10" y="19.539"/><use xlink:href="#11" y="21.71"/></svg><svg x="1520"><use xlink:href="#a"/><use xlink:href="#b" x="-.004" y="26.027"/><use xlink:href="#3"/><use xlink:href="#4" y="4.342"/><use xlink:href="#5" y="6.513"/><use xlink:href="#6" y="10.855"/><use xlink:href="#7" y="13.026"/><use xlink:href="#8" y="15.197"/><use xlink:href="#9" y="17.368"/><use xlink:href="#10" y="19.539"/><use xlink:href="#11" y="21.71"/><use xlink:href="#12" y="23.881"/></svg><svg x="1600"><use xlink:href="#a"/><use xlink:href="#b" x="-.004" y="28.198"/><use xlink:href="#3"/><use xlink:href="#4" y="4.342"/><use xlink:href="#5" y="6.513"/><use xlink:href="#6" y="10.855"/><use xlink:href="#7" y="13.026"/><use xlink:href="#8" y="15.197"/><use xlink:href="#9" y="17.368"/><use xlink:href="#10" y="19.539"/><use xlink:href="#11" y="21.71"/><use xlink:href="#12" y="23.881"/><use xlink:href="#13" y="26.052"/></svg><svg x="1680"><use xlink:href="#a"/><use xlink:href="#b" x="1.996" y="28.198"/><use xlink:href="#3"/><use xlink:href="#4" y="4.342"/><use xlink:href="#5" y="6.513"/><use xlink:href="#6" y="10.855"/><use xlink:href="#7" y="13.026"/><use xlink:href="#8" y="15.197"/><use xlink:href="#9" y="17.368"/><use xlink:href="#10" y="19.539"/><use xlink:href="#11" y="21.71"/><use xlink:href="#12" y="23.881"/><use xlink:href="#13" y="26.052"/><text y="29.893" class="g">^\</text></svg><svg x="1760"><use xlink:href="#a"/><use xlink:href="#b" x="-.004" y="30.369"/><use xlink:href="#3"/><use xlink:href="#4" y="4.342"/><use xlink:href="#5" y="6.513"/><use xlink:href="#6" y="10.855"/><use xlink:href="#7" y="13.026"/><use xlink:href="#8" y="15.197"/><use xlink:href="#9" y="17.368"/><use xlink:href="#10" y="19.539"/><use xlink:href="#11" y="21.71"/><use xlink:href="#12" y="23.881"/><use xlink:href="#13" y="26.052"/><use xlink:href="#14" y="28.223"/></svg><svg x="1840"><use xlink:href="#a"/><use xlink:href="#b" x="53.996" y="30.369"/><use xlink:href="#3"/><use xlink:href="#4" y="4.342"/><use xlink:href="#5" y="6.513"/><use xlink:href="#6" y="10.855"/><use xlink:href="#7" y="13.026"/><use xlink:href="#8" y="15.197"/><use xlink:href="#9" y="17.368"/><use xlink:href="#10" y="19.539"/><use xlink:href="#11" y="21.71"/><use xlink:href="#12" y="23.881"/><use xlink:href="#13" y="26.052"/><use xlink:href="#14" y="28.223"/><use xlink:href="#1" y="30.394"/></svg><svg x="1920"><use xlink:href="#a"/><use xlink:href="#b" x="-.004" y="32.54"/><use xlink:href="#3"/><use xlink:href="#4" y="4.342"/><use xlink:href="#5" y="6.513"/><use xlink:href="#6" y="10.855"/><use xlink:href="#7" y="13.026"/><use xlink:href="#8" y="15.197"/><use xlink:href="#9" y="17.368"/><use xlink:href="#10" y="19.539"/><use xlink:href="#11" y="21.71"/><use xlink:href="#12" y="23.881"/><use xlink:href="#13" y="26.052"/><use xlink:href="#14" y="28.223"/><text y="32.064" class="f">amiryeg@dev</text><text x="11.022" y="32.064" class="g">:</text><text x="12.024" y="32.064" class="h">~/Projects/nodejs-lessons/L9-file-upload</text><text x="52.104" y="32.064" class="g">$</text><text x="54.108" y="32.064" class="g">exit</text></svg></svg></g></g></svg></svg>